HIERARCHY
ROOT Hips
{
	OFFSET	0.00	0.00	0.00
	CHANNELS 6 Xposition Yposition Zposition Zrotation Xrotation Yrotation
	JOINT LeftUpLeg
	{
		OFFSET	 0.126116	-0.014019	-0.065224
		CHANNELS 3 Zrotation Xrotation Yrotation
		JOINT LeftLeg
		{
			OFFSET	 0.000000	 0.000000	 0.569914
			CHANNELS 3 Zrotation Xrotation Yrotation
			JOINT LeftFoot
			{
				OFFSET	 0.000000	 0.000000	 0.544423
				CHANNELS 3 Zrotation Xrotation Yrotation
				JOINT LeftToeBase
				{
					OFFSET	 0.000000	 0.000000	 0.207117
					CHANNELS 3 Zrotation Xrotation Yrotation
					End Site
					{
						OFFSET	 0.000000	 0.000000	 0.207117
					}
				}
			}
		}
	}
	JOINT RightUpLeg
	{
		OFFSET	-0.124023	-0.008373	-0.065224
		CHANNELS 3 Zrotation Xrotation Yrotation
		JOINT RightLeg
		{
			OFFSET	 0.000000	 0.000000	 0.570047
			CHANNELS 3 Zrotation Xrotation Yrotation
			JOINT RightFoot
			{
				OFFSET	 0.000000	 0.000000	 0.544354
				CHANNELS 3 Zrotation Xrotation Yrotation
				JOINT RightToeBase
				{
					OFFSET	 0.000000	 0.000000	 0.207540
					CHANNELS 3 Zrotation Xrotation Yrotation
					End Site
					{
						OFFSET	 0.000000	 0.000000	 0.207540
					}
				}
			}
		}
	}
	JOINT Spine
	{
		OFFSET	 0.000184	-0.007763	 0.117403
		CHANNELS 3 Zrotation Xrotation Yrotation
		JOINT Spine1
		{
			OFFSET	 0.000000	 0.000000	 0.137269
			CHANNELS 3 Zrotation Xrotation Yrotation
			JOINT Spine2
			{
				OFFSET	 0.000000	 0.000000	 0.156879
				CHANNELS 3 Zrotation Xrotation Yrotation
				JOINT LeftShoulder
				{
					OFFSET	 0.080501	-0.002496	 0.160144
					CHANNELS 3 Zrotation Xrotation Yrotation
					JOINT LeftArm
					{
						OFFSET	 0.000000	 0.000000	 0.164363
						CHANNELS 3 Zrotation Xrotation Yrotation
						JOINT LeftForeArm
						{
							OFFSET	 0.000000	 0.000000	 0.364576
							CHANNELS 3 Zrotation Xrotation Yrotation
							JOINT LeftHand
							{
								OFFSET	 0.000000	 0.000000	 0.360812
								CHANNELS 3 Zrotation Xrotation Yrotation
								JOINT LeftHandIndex1
								{
									OFFSET	 0.000000	 0.000000	 0.086006
									CHANNELS 3 Zrotation Xrotation Yrotation
									JOINT LeftHandIndex2
									{
										OFFSET	 0.000000	 0.000000	 0.047236
										CHANNELS 3 Zrotation Xrotation Yrotation
										JOINT LeftHandIndex3
										{
											OFFSET	-0.004284	-0.000551	 0.038166
											CHANNELS 3 Zrotation Xrotation Yrotation
											End Site
											{
												OFFSET	-0.004284	-0.000551	 0.038166
											}
										}
									}
								}
							}
						}
					}
				}
				JOINT Neck
				{
					OFFSET	 0.000000	 0.000000	 0.176489
					CHANNELS 3 Zrotation Xrotation Yrotation
					JOINT Head
					{
						OFFSET	 0.000000	-0.001747	 0.077940
						CHANNELS 3 Zrotation Xrotation Yrotation
						End Site
						{
							OFFSET	 0.000000	-0.001747	 0.077940
						}
					}
				}
				JOINT RightShoulder
				{
					OFFSET	-0.080363	 0.000306	 0.159706
					CHANNELS 3 Zrotation Xrotation Yrotation
					JOINT RightArm
					{
						OFFSET	 0.000000	 0.000000	 0.164196
						CHANNELS 3 Zrotation Xrotation Yrotation
						JOINT RightForeArm
						{
							OFFSET	 0.000000	 0.000000	 0.365611
							CHANNELS 3 Zrotation Xrotation Yrotation
							JOINT RightHand
							{
								OFFSET	 0.000000	 0.000000	 0.360648
								CHANNELS 3 Zrotation Xrotation Yrotation
								JOINT RightHandIndex1
								{
									OFFSET	 0.000000	 0.000000	 0.069977
									CHANNELS 3 Zrotation Xrotation Yrotation
									JOINT RightHandIndex2
									{
										OFFSET	 0.000000	 0.000000	 0.052305
										CHANNELS 3 Zrotation Xrotation Yrotation
										JOINT RightHandIndex3
										{
											OFFSET	 0.009002	-0.000782	 0.042196
											CHANNELS 3 Zrotation Xrotation Yrotation
											End Site
											{
												OFFSET	 0.009002	-0.000782	 0.042196
											}
										}
									}
								}
							}
						}
					}
				}
			}
		}
	}
}
MOTION
Frames:    8
Frame Time: 0.03333334
 0.012577	 0.029054	 1.200996	 4.576712	-1.289384	-2.728427	 5.254776	-10.155400	-173.476900	 0.694600	-38.703910	 0.213777	 60.447010	 82.254380	-64.372450	-2.370312	 31.461970	-0.066467	-10.041660	-32.061900	-175.933500	 9.880871	-48.976950	 8.066216	 8.266939	 70.044040	-3.347791	 2.358444	 33.077290	 0.105019	-10.761880	 8.669474	 2.139724	-2.194806	 2.368484	-1.567343	 3.319618	-2.097991	 1.669058	-93.878300	 58.909110	 175.523300	 8.768379	 30.503650	-45.409340	-3.589134	 0.038720	-1.915291	-5.585407	-30.310030	-9.508135	-4.870464	 19.226980	-2.788227	-3.881975	 21.467080	 2.203212	-4.807031	 5.560064	 0.146117	-0.094504	-5.052954	 0.174661	 1.125629	 1.988922	 2.803492	 89.798960	 61.623070	-179.959800	-21.286120	 54.634280	 11.461890	 1.077303	-1.512642	 12.215450	-1.827281	-16.390480	 1.481397	 6.297124	 25.236290	-0.554195	 1.833490	 45.117620	-6.946703	 0.470497	 24.520340	 3.596639
 0.011261	 0.001495	 1.199719	 4.945823	-1.082137	-2.714936	 4.744012	-8.688770	-173.796300	 0.947942	-38.110960	 0.367372	 66.212360	 82.934840	-70.318780	-2.369664	 31.570610	-0.068921	-10.983330	-33.515810	-176.316300	 9.476774	-45.005860	 7.276375	 6.719156	 68.728490	-1.896323	 2.358828	 33.021470	 0.103722	-13.343050	 8.550847	 2.080930	-2.289898	 2.596531	-1.573807	 3.266468	-2.328565	 1.694877	-93.947680	 58.949050	 175.370400	 7.828084	 29.122330	-46.001830	-5.280057	 0.138477	-2.650670	-7.989884	-33.036680	-11.589020	-4.870172	 19.241400	-2.790574	-3.878934	 21.505920	 2.200118	-4.806325	 5.568276	 0.145640	-0.073761	-5.077653	 0.185230	 1.132443	 1.920824	 2.728698	 89.777230	 61.650180	 179.988400	-21.257760	 55.433220	 10.014410	 2.264354	-1.253567	 13.406810	-0.311906	-19.148550	 2.032662	 6.292547	 24.743540	-0.539277	 1.900364	 44.580220	-7.006365	 0.547459	 24.183150	 3.557548
 0.009180	-0.039483	 1.197301	 5.405313	-0.654184	-2.722857	 4.075969	-6.501023	-174.241900	 1.145409	-36.972460	 0.476767	 74.878350	 83.701100	-79.118490	-2.368870	 31.703340	-0.071927	-12.488590	-34.780900	-177.080900	 9.033848	-37.616830	 6.013382	 3.758298	 65.920620	 0.924120	 2.358974	 33.000020	 0.103224	-16.763100	 8.253948	 1.965364	-2.444797	 2.902516	-1.534386	 3.185750	-2.647187	 1.706027	-94.059250	 58.972760	 175.129600	 6.384768	 27.233620	-46.751270	-7.331147	 0.328729	-3.646958	-11.198670	-36.550250	-14.410530	-4.866668	 19.332190	-2.796804	-3.872809	 21.584140	 2.193897	-4.804949	 5.584562	 0.144682	-0.049568	-5.097231	 0.216125	 1.116717	 1.838246	 2.660835	 89.734880	 61.724190	 179.887100	-21.113390	 56.472860	 8.550597	 3.673254	-0.713548	 13.623830	 1.678554	-22.674410	 2.958546	 6.282061	 23.959610	-0.545897	 1.994705	 43.802390	-7.090208	 0.711507	 23.457670	 3.475471
 0.006457	-0.083768	 1.193375	 5.935514	-0.133685	-2.741969	 3.339195	-4.143854	-174.733600	 1.343565	-35.602820	 0.576873	 85.155230	 84.364690	-89.524540	-2.367944	 31.854790	-0.075372	-14.371380	-35.177360	-178.182200	 8.743451	-28.781320	 4.607056	 1.747650	 64.066090	 2.535698	 2.359065	 32.985860	 0.102899	-20.516800	 7.888302	 1.817608	-2.613962	 3.087029	-1.486094	 3.082689	-2.939663	 1.711274	-94.192320	 58.994520	 174.842800	 5.127486	 25.386350	-47.411180	-9.556036	 0.616956	-4.752236	-15.050280	-39.912280	-17.987300	-4.861971	 19.451980	-2.804664	-3.865274	 21.680190	 2.186240	-4.803253	 5.604542	 0.143512	-0.022175	-5.117200	 0.255315	 1.089335	 1.744846	 2.588209	 89.683360	 61.817780	 179.763000	-20.751360	 57.362260	 7.625492	 5.193602	 0.011305	 12.433170	 3.945058	-26.160250	 4.233154	 6.268842	 23.024840	-0.559069	 2.102077	 42.887880	-7.185177	 0.911585	 22.560270	 3.377692
 0.004148	-0.117384	 1.188488	 6.158124	 0.285599	-2.936497	 3.025733	-2.301775	-174.948900	 1.435514	-34.562920	 0.614330	 95.236780	 84.737500	-99.668500	-2.366622	 32.067720	-0.080222	-15.185560	-36.392090	-178.830100	 8.926785	-24.343390	 4.023914	 1.108997	 62.863320	 2.622809	 2.360347	 32.795870	 0.098490	-23.413960	 7.506578	 1.864151	-2.715685	 3.285408	-1.417170	 3.011117	-3.149526	 1.683875	-94.289120	 58.989430	 174.637300	 4.409092	 24.223670	-47.913450	-11.725980	 0.923568	-5.668025	-18.380330	-42.537520	-20.494250	-4.853343	 19.648370	-2.812652	-3.856076	 21.797060	 2.176888	-4.798041	 5.665905	 0.139917	-0.012726	-5.153684	 0.288080	 1.039322	 1.671285	 2.581215	 89.613610	 61.896610	 179.594600	-20.264500	 57.885570	 6.935390	 6.217220	 0.541212	 11.668370	 5.494514	-28.625250	 5.071379	 6.252297	 22.056090	-0.592856	 2.189333	 42.121020	-7.261954	 1.132063	 21.555560	 3.272997
 0.001511	-0.149572	 1.182243	 6.374682	 0.691285	-3.132138	 2.713701	-0.536656	-175.170900	 1.524495	-33.650520	 0.649377	 107.040900	 84.938950	-111.539100	-2.365307	 32.276570	-0.084998	-15.921770	-38.763670	-179.548400	 9.270058	-22.493520	 3.870263	 1.115771	 62.945650	 2.040503	 2.361579	 32.608280	 0.094164	-26.061350	 7.134742	 1.910110	-2.807377	 3.447255	-1.345509	 2.936880	-3.339285	 1.652723	-94.383390	 58.984320	 174.437200	 3.871444	 23.235750	-48.402460	-13.768700	 1.263158	-6.520040	-21.503440	-44.518820	-22.928830	-4.844826	 19.841200	-2.820486	-3.847043	 21.911550	 2.167717	-4.792909	 5.726357	 0.136367	-0.003633	-5.189518	 0.320090	 0.986639	 1.600133	 2.574540	 89.545530	 61.973650	 179.429300	-19.732470	 58.333880	 6.075760	 7.157107	 1.016994	 11.330010	 6.898815	-30.479450	 5.875158	 6.235594	 21.108400	-0.626123	 2.272173	 41.372540	-7.334510	 1.344571	 20.571620	 3.175172
-0.001624	-0.185836	 1.174793	 6.448649	 0.916474	-3.327978	 2.462928	 1.850805	-175.453100	 1.571953	-32.280970	 0.651231	 116.732200	 85.159770	-121.242500	-2.361360	 32.881340	-0.098920	-15.677550	-41.517570	-179.911200	 9.322386	-21.982840	 3.807157	 3.556860	 67.091320	-0.946962	 2.356296	 33.388050	 0.112264	-28.799760	 6.787218	 2.000835	-2.893558	 3.841962	-1.288488	 2.899077	-3.587016	 1.628778	-94.437620	 58.970940	 174.323600	 3.189628	 22.500670	-48.875870	-15.873670	 1.681464	-7.418974	-24.738660	-45.760900	-25.279630	-4.833148	 20.071790	-2.821883	-3.833623	 22.080790	 2.154086	-4.779612	 5.882561	 0.127168	 0.012654	-5.243490	 0.334126	 0.958306	 1.497972	 2.546156	 89.484760	 62.018740	 179.281400	-18.894130	 58.688100	 5.037308	 8.046086	 1.529083	 10.937340	 8.193974	-32.109940	 6.393517	 6.211874	 19.860530	-0.676518	 2.433440	 39.855480	-7.474766	 1.607568	 19.333030	 3.058455
-0.004397	-0.217861	 1.168811	 6.516004	 1.101843	-3.493304	 2.229840	 4.103641	-175.697800	 1.609313	-30.593950	 0.639617	 122.254500	 85.444820	-126.771800	-2.357568	 33.437210	-0.111836	-15.321440	-43.398410	 179.897900	 9.336750	-21.792870	 3.781443	 7.463859	 71.305580	-5.315565	 2.351192	 34.096610	 0.128939	-31.032960	 6.493953	 2.076509	-2.984063	 4.036650	-1.270465	 2.861607	-3.735821	 1.618150	-94.483620	 58.958600	 174.227800	 2.744123	 21.962230	-49.096350	-17.630640	 2.075464	-8.156284	-27.186210	-46.304970	-27.005630	-4.823496	 20.270710	-2.825634	-3.821715	 22.230410	 2.141992	-4.767603	 6.023296	 0.118850	 0.027648	-5.290938	 0.345774	 0.931769	 1.409800	 2.517432	 89.432590	 62.055100	 179.154200	-18.093400	 58.728600	 5.301952	 8.849206	 1.991851	 8.232904	 9.163824	-32.985720	 6.687801	 6.190528	 18.765530	-0.719199	 2.569303	 38.512990	-7.591806	 1.834382	 18.246620	 2.961747
